# Blender 5.0.1
# www.blender.org
o Circle
v 0.000000 -0.018750 0.000000 0.0000 0.0000 0.0000
v -0.013258 -0.013258 0.000000 0.0000 0.0000 0.0000
v -0.018750 0.000000 0.000000 0.0000 0.0000 0.0000
v -0.013258 0.013258 0.000000 0.0000 0.0000 0.0000
v 0.000000 0.018750 0.000000 0.0000 0.0000 0.0000
v 0.013258 0.013258 0.000000 0.0000 0.0000 0.0000
v 0.018750 0.000000 0.000000 0.0000 0.0000 0.0000
v 0.013258 -0.013258 0.000000 0.0000 0.0000 0.0000
v 0.000000 -0.018750 -0.850000 0.0000 0.0000 0.0000
v -0.013258 -0.013258 -0.850000 0.0000 0.0000 0.0000
v 0.013258 -0.013258 -0.850000 0.0000 0.0000 0.0000
v 0.013258 0.013258 -0.850000 0.0000 0.0000 0.0000
v 0.018750 0.000000 -0.850000 0.0000 0.0000 0.0000
v -0.013258 0.013258 -0.850000 0.0000 0.0000 0.0000
v 0.000000 0.018750 -0.850000 0.0000 0.0000 0.0000
v -0.018750 0.000000 -0.850000 0.0000 0.0000 0.0000
v 0.000000 -0.048000 -0.850000 0.0000 0.0000 0.0000
v 0.033941 -0.033941 -0.850000 0.0000 0.0000 0.0000
v 0.033941 0.033941 -0.850000 0.0000 0.0000 0.0000
v -0.033941 0.033941 -0.850000 0.0000 0.0000 0.0000
v -0.033941 -0.033941 -0.850000 0.0000 0.0000 0.0000
v 0.048000 0.000000 -0.850000 0.0000 0.0000 0.0000
v 0.000000 0.048000 -0.850000 0.0000 0.0000 0.0000
v -0.048000 0.000000 -0.850000 0.0000 0.0000 0.0000
v 0.000000 0.000000 0.000000 0.0000 0.0000 0.0000
v 0.000000 0.000000 -1.000000 0.0000 0.0000 0.0000
v 0.000000 0.000000 -1.000000 0.0000 0.0000 0.0000
v 0.000000 0.000000 -1.000000 0.0000 0.0000 0.0000
v 0.000000 0.000000 -1.000000 0.0000 0.0000 0.0000
vn -0.7071 0.7071 -0.0000
vn -1.0000 -0.0000 -0.0000
vn 0.7071 0.7071 -0.0000
vn -0.0000 1.0000 -0.0000
vn 0.7071 -0.7071 -0.0000
vn 1.0000 -0.0000 -0.0000
vn -0.7071 -0.7071 -0.0000
vn -0.0000 -1.0000 -0.0000
vn -0.0000 -0.0000 1.0000
vn -0.9609 -0.0838 -0.2639
vn -0.7666 0.5834 -0.2682
vn -0.8559 0.3545 -0.3765
vn 0.9609 0.0838 -0.2639
vn 0.7666 -0.5834 -0.2683
vn 0.8559 -0.3545 -0.3765
vn -0.0838 0.9609 -0.2639
vn 0.3545 0.8559 -0.3765
vn 0.0838 -0.9609 -0.2639
vn -0.3545 -0.8559 -0.3765
vn 0.5833 0.7667 -0.2682
vn -0.5834 -0.7666 -0.2682
vt 0.000000 0.000000
s 1
f 14/1/1 3/1/2 4/1/1
f 12/1/3 5/1/4 6/1/3
f 11/1/5 7/1/6 8/1/5
f 16/1/2 2/1/7 3/1/2
f 15/1/4 4/1/1 5/1/4
f 13/1/6 6/1/3 7/1/6
f 9/1/8 8/1/5 1/1/8
f 10/1/7 1/1/8 2/1/7
f 20/1/9 16/1/9 14/1/9
f 19/1/9 15/1/9 12/1/9
f 18/1/9 13/1/9 11/1/9
f 24/1/9 10/1/9 16/1/9
f 23/1/9 14/1/9 15/1/9
f 22/1/9 12/1/9 13/1/9
f 17/1/9 11/1/9 9/1/9
f 21/1/9 9/1/9 10/1/9
f 5/1/9 25/1/9 6/1/9
f 6/1/9 25/1/9 7/1/9
f 7/1/9 25/1/9 8/1/9
f 8/1/9 25/1/9 1/1/9
f 1/1/9 25/1/9 2/1/9
f 2/1/9 25/1/9 3/1/9
f 3/1/9 25/1/9 4/1/9
f 5/1/9 4/1/9 25/1/9
f 14/1/1 16/1/2 3/1/2
f 12/1/3 15/1/4 5/1/4
f 11/1/5 13/1/6 7/1/6
f 16/1/2 10/1/7 2/1/7
f 15/1/4 14/1/1 4/1/1
f 13/1/6 12/1/3 6/1/3
f 9/1/8 11/1/5 8/1/5
f 10/1/7 9/1/8 1/1/8
f 20/1/9 24/1/9 16/1/9
f 19/1/9 23/1/9 15/1/9
f 18/1/9 22/1/9 13/1/9
f 24/1/9 21/1/9 10/1/9
f 23/1/9 20/1/9 14/1/9
f 22/1/9 19/1/9 12/1/9
f 17/1/9 18/1/9 11/1/9
f 21/1/9 17/1/9 9/1/9
f 24/1/10 20/1/11 29/1/12
f 22/1/13 18/1/14 27/1/15
f 20/1/11 23/1/16 28/1/17 29/1/12
f 18/1/14 17/1/18 26/1/19 27/1/15
f 23/1/16 19/1/20 28/1/17
f 21/1/21 24/1/10 29/1/12 26/1/19
f 19/1/20 22/1/13 27/1/15 28/1/17
f 17/1/18 21/1/21 26/1/19
